<?xml version="1.0" encoding="UTF-8" standalone="no"?>
<svg
   xmlns:dc="http://purl.org/dc/elements/1.1/"
   xmlns:cc="http://creativecommons.org/ns#"
   xmlns:rdf="http://www.w3.org/1999/02/22-rdf-syntax-ns#"
   xmlns:svg="http://www.w3.org/2000/svg"
   xmlns="http://www.w3.org/2000/svg"
   xmlns:sodipodi="http://sodipodi.sourceforge.net/DTD/sodipodi-0.dtd"
   xmlns:inkscape="http://www.inkscape.org/namespaces/inkscape"
   width="3200"
   height="640"
   viewBox="0 0 846.66665 169.33334"
   version="1.1"
   id="svg8"
   inkscape:version="1.0.2 (e86c870879, 2021-01-15)"
   sodipodi:docname="command-tiles.svg"
   inkscape:export-filename="/home/cwboden/robot-puzzle-game/assets/texture/command-tiles.png"
   inkscape:export-xdpi="96"
   inkscape:export-ydpi="96">
  <defs
     id="defs2" />
  <sodipodi:namedview
     id="base"
     pagecolor="#ffffff"
     bordercolor="#666666"
     borderopacity="1.0"
     inkscape:pageopacity="0.0"
     inkscape:pageshadow="2"
     inkscape:zoom="0.76220414"
     inkscape:cx="610.08213"
     inkscape:cy="293.1166"
     inkscape:document-units="mm"
     inkscape:current-layer="layer1"
     inkscape:document-rotation="0"
     showgrid="true"
     units="px"
     inkscape:window-width="1920"
     inkscape:window-height="1023"
     inkscape:window-x="0"
     inkscape:window-y="28"
     inkscape:window-maximized="1"
     inkscape:snap-global="true">
    <inkscape:grid
       type="xygrid"
       id="grid833"
       spacingx="2.1166667"
       spacingy="2.1166667"
       empspacing="8" />
  </sodipodi:namedview>
  <metadata
     id="metadata5">
    <rdf:RDF>
      <cc:Work
         rdf:about="">
        <dc:format>image/svg+xml</dc:format>
        <dc:type
           rdf:resource="http://purl.org/dc/dcmitype/StillImage" />
        <dc:title />
      </cc:Work>
    </rdf:RDF>
  </metadata>
  <g
     inkscape:label="Layer 1"
     inkscape:groupmode="layer"
     id="layer1">
    <g
       id="g861"
       transform="translate(169.33334)"
       inkscape:export-filename="/home/cwboden/robot-puzzle-game/assets/texture/move-up-tile.png"
       inkscape:export-xdpi="96"
       inkscape:export-ydpi="96">
      <rect
         style="fill:#000000;fill-rule:evenodd;stroke-width:5.29167"
         id="rect835"
         width="169.33333"
         height="169.33333"
         x="0"
         y="0"
         rx="16.933332"
         ry="16.933332" />
      <path
         style="fill:#ffffff;stroke:#000000;stroke-width:0.264583px;stroke-linecap:butt;stroke-linejoin:miter;stroke-opacity:1"
         d="M 84.666668,16.933333 135.46667,67.733332 H 101.6 V 152.4 H 67.733332 V 67.733332 H 33.866666"
         id="path857" />
    </g>
    <g
       id="g867"
       transform="translate(338.66668)"
       inkscape:export-filename="/home/cwboden/robot-puzzle-game/assets/texture/move-down-tile.png"
       inkscape:export-xdpi="96"
       inkscape:export-ydpi="96">
      <rect
         style="fill:#000000;fill-rule:evenodd;stroke-width:5.29167"
         id="rect863"
         width="169.33333"
         height="169.33333"
         x="-169.33333"
         y="-169.33333"
         rx="16.933332"
         ry="16.933332"
         transform="scale(-1)" />
      <path
         style="fill:#ffffff;stroke:#000000;stroke-width:0.264583px;stroke-linecap:butt;stroke-linejoin:miter;stroke-opacity:1"
         d="M 84.66666,152.4 33.866658,101.6 h 33.86667 V 16.933328 H 101.6 V 101.6 h 33.86666"
         id="path865" />
    </g>
    <g
       id="g873"
       transform="rotate(-90,338.66667,-169.33334)"
       inkscape:export-filename="/home/cwboden/robot-puzzle-game/assets/texture/move-left-tile.png"
       inkscape:export-xdpi="96"
       inkscape:export-ydpi="96">
      <rect
         style="fill:#000000;fill-rule:evenodd;stroke-width:5.29167"
         id="rect869"
         width="169.33333"
         height="169.33333"
         x="0"
         y="0"
         rx="16.933332"
         ry="16.933332" />
      <path
         style="fill:#ffffff;stroke:#000000;stroke-width:0.264583px;stroke-linecap:butt;stroke-linejoin:miter;stroke-opacity:1"
         d="M 84.666668,16.933333 135.46667,67.733332 H 101.6 V 152.4 H 67.733332 V 67.733332 H 33.866666"
         id="path871" />
    </g>
    <g
       id="g879"
       transform="rotate(90,423.33334,423.33334)"
       inkscape:export-filename="/home/cwboden/robot-puzzle-game/assets/texture/move-right-tile.png"
       inkscape:export-xdpi="96"
       inkscape:export-ydpi="96">
      <rect
         style="fill:#000000;fill-rule:evenodd;stroke-width:5.29167"
         id="rect875"
         width="169.33333"
         height="169.33333"
         x="0"
         y="0"
         rx="16.933332"
         ry="16.933332" />
      <path
         style="fill:#ffffff;stroke:#000000;stroke-width:0.264583px;stroke-linecap:butt;stroke-linejoin:miter;stroke-opacity:1"
         d="M 84.666668,16.933333 135.46667,67.733332 H 101.6 V 152.4 H 67.733332 V 67.733332 H 33.866666"
         id="path877" />
    </g>
    <path
       style="fill:#000000;stroke:none;stroke-width:0.264583px;stroke-linecap:butt;stroke-linejoin:miter;stroke-opacity:1"
       d="M 0,16.933334 C 0,8.4666668 8.4666668,0 16.933334,0 h 16.933332 c 8.466668,0 8.466667,8.4666668 8.466667,8.4666668 0,0 10e-7,8.4666672 -8.466666,8.4666672 -10.583333,0 -16.933333,6.35 -16.933333,16.933333 0,8.466667 -8.4666672,8.466666 -8.4666672,8.466666 0,0 -8.4666668,10e-7 -8.4666668,-8.466666 z"
       id="path940"
       sodipodi:nodetypes="ccccccccc"
       inkscape:export-filename="/home/cwboden/robot-puzzle-game/assets/texture/empty-slot.png"
       inkscape:export-xdpi="96"
       inkscape:export-ydpi="96" />
    <path
       style="fill:#000000;stroke:none;stroke-width:0.264583px;stroke-linecap:butt;stroke-linejoin:miter;stroke-opacity:1"
       d="M 16.933334,169.33334 C 8.4666731,169.33334 3.0999997e-6,160.86667 3.0999997e-6,152.40001 v -16.93333 c 0,-8.46667 8.4666700000003,-8.46667 8.4666700000003,-8.46667 0,0 8.4666609,0 8.4666609,8.46666 0,10.58334 6.35,16.93334 16.933339,16.93334 8.46666,0 8.46666,8.46666 8.46666,8.46666 0,0 0,8.46667 -8.46666,8.46667 z"
       id="path942"
       sodipodi:nodetypes="ccccccccc"
       inkscape:export-filename="/home/cwboden/robot-puzzle-game/assets/texture/empty-slot.png"
       inkscape:export-xdpi="96"
       inkscape:export-ydpi="96" />
    <path
       style="fill:#000000;stroke:none;stroke-width:0.264583px;stroke-linecap:butt;stroke-linejoin:miter;stroke-opacity:1"
       d="m 169.33334,152.4 c 0,8.46667 -8.46667,16.93334 -16.93333,16.93334 h -16.93333 c -8.46667,0 -8.46667,-8.46667 -8.46667,-8.46667 0,0 0,-8.46667 8.46666,-8.46667 10.58334,0 16.93334,-6.35 16.93334,-16.93333 0,-8.46666 8.46666,-8.46666 8.46666,-8.46666 0,0 8.46667,0 8.46667,8.46666 z"
       id="path944"
       sodipodi:nodetypes="ccccccccc"
       inkscape:export-filename="/home/cwboden/robot-puzzle-game/assets/texture/empty-slot.png"
       inkscape:export-xdpi="96"
       inkscape:export-ydpi="96" />
    <path
       style="fill:#000000;stroke:none;stroke-width:0.264583px;stroke-linecap:butt;stroke-linejoin:miter;stroke-opacity:1"
       d="m 152.4,0 c 8.46667,0 16.93334,8.46667 16.93334,16.93333 v 16.93333 c 0,8.46667 -8.46667,8.46667 -8.46667,8.46667 0,0 -8.46667,0 -8.46667,-8.46666 0,-10.58334 -6.35,-16.93334 -16.93333,-16.93334 -8.46666,0 -8.46666,-8.46666 -8.46666,-8.46666 0,0 0,-8.46667 8.46666,-8.46667 z"
       id="path946"
       sodipodi:nodetypes="ccccccccc"
       inkscape:export-filename="/home/cwboden/robot-puzzle-game/assets/texture/empty-slot.png"
       inkscape:export-xdpi="96"
       inkscape:export-ydpi="96" />
  </g>
</svg>
